<?xml version="1.0" encoding="utf-8"?>
<!-- Generator: Adobe Illustrator 15.1.0, SVG Export Plug-In  -->
<!DOCTYPE svg PUBLIC "-//W3C//DTD SVG 1.1//EN" "http://www.w3.org/Graphics/SVG/1.1/DTD/svg11.dtd" [
	<!ENTITY ns_flows "http://ns.adobe.com/Flows/1.0/">
]>
<svg version="1.1"
	 xmlns="http://www.w3.org/2000/svg" xmlns:xlink="http://www.w3.org/1999/xlink" xmlns:a="http://ns.adobe.com/AdobeSVGViewerExtensions/3.0/"
	 x="0px" y="0px" width="220px" height="220px" viewBox="0 1 220 220" overflow="visible" enable-background="new 0 1 220 220"
	 xml:space="preserve">
<defs>
</defs>
<g>
	<defs>
		<rect id="SVGID_1_" width="220" height="220"/>
	</defs>
	<clipPath id="SVGID_2_">
		<use xlink:href="#SVGID_1_"  overflow="visible"/>
	</clipPath>
</g>
<ellipse fill="#8561AA" stroke="#662D91" stroke-width="4.0026" stroke-miterlimit="10" cx="108.333" cy="55.5" rx="40.953" ry="49.877"/>
<path fill="#662D91" stroke="#662D91" stroke-width="0.75" stroke-miterlimit="10" d="M112.718,106.095
	c-1.685,0.429-7.354,3.683-7.326,5.474c1.908,0.68,4.019,0.094,6.012,0.309c1.659,0.179,3.553,1.371,5.271,0.604
	c4.402-1.966-2.387-4.073-3.477-6.34c-0.525-0.159-0.833-0.001-1.269,0.217"/>
<g>
	<path fill="#662D91" d="M113.507,107.146c1.731,0.353,3.463,0.966,4.909,2.102c1.459,1.101,2.497,2.862,2.69,4.75
		c0.097,0.942,0.081,1.864-0.177,2.84c-0.254,0.949-0.871,1.915-1.815,2.448c-0.934,0.544-2.036,0.654-3.049,0.451
		c-0.51-0.105-1.011-0.283-1.482-0.589c-0.454-0.304-0.959-0.751-1.122-1.52c-0.076-0.378-0.011-0.79,0.137-1.115
		c0.148-0.324,0.354-0.575,0.564-0.78c0.367-0.357,0.854-0.698,1.36-0.9c1.045-0.442,2.237-0.35,3.2,0.002
		c1.95,0.736,3.367,2.157,4.41,3.804c0.509,0.84,0.921,1.77,1.042,2.87c0.069,1.019-0.028,2.049-0.374,3.036
		c-0.339,0.99-0.997,1.94-1.882,2.577c-0.861,0.639-1.93,0.998-2.912,1.131c-0.528,0.06-1.09,0.09-1.767-0.132
		c-0.329-0.113-0.736-0.33-1.036-0.775c-0.307-0.459-0.32-1.057-0.197-1.443c0.253-0.789,0.692-1.173,1.091-1.535
		c0.205-0.179,0.415-0.325,0.626-0.469l0.344-0.214l0.29-0.162c1.909-1.018,4.307-0.919,6.063,0.324
		c0.872,0.607,1.567,1.478,1.958,2.465c0.398,0.991,0.48,2.062,0.334,3.076c-0.143,0.973-0.467,1.943-1,2.806
		c-0.531,0.858-1.308,1.628-2.274,2.074c-0.995,0.404-1.894,0.597-2.997,0.507c-0.275-0.034-0.567-0.097-0.871-0.243
		c-0.3-0.14-0.619-0.415-0.791-0.769c-0.17-0.355-0.194-0.707-0.16-1.018c0.013-0.164,0.076-0.589,0.219-0.854
		c0.255-0.618,0.956-1.033,1.504-1.089c0.567-0.09,1.071-0.019,1.545,0.086c0.944,0.221,1.793,0.594,2.599,1.037
		c0.798,0.461,1.562,0.954,2.237,1.65c0.366,0.397,0.538,0.798,0.755,1.218c0.197,0.419,0.361,0.865,0.43,1.343
		c0.074,0.473,0.024,0.985-0.174,1.43c-0.197,0.446-0.521,0.804-0.869,1.097c-0.716,0.572-1.525,0.947-2.318,1.341
		c0.742-0.479,1.508-0.951,2.114-1.564c0.63-0.594,0.945-1.414,0.726-2.208c-0.091-0.395-0.267-0.777-0.479-1.142
		c-0.214-0.348-0.452-0.752-0.719-0.979c-0.605-0.529-1.382-0.955-2.148-1.312c-0.771-0.355-1.58-0.652-2.373-0.783
		c-0.393-0.065-0.787-0.079-1.093-0.006c-0.319,0.077-0.46,0.204-0.54,0.417c-0.047,0.138-0.053,0.158-0.068,0.435
		c-0.006,0.128,0.021,0.232,0.048,0.274c0.03,0.068,0.226,0.182,0.573,0.203c0.664,0.044,1.549-0.174,2.169-0.474
		c1.27-0.661,2.039-2.183,2.222-3.72c0.198-1.485-0.421-2.966-1.627-3.736c-1.17-0.804-2.814-0.845-4.032-0.184l-0.288,0.164
		l-0.219,0.141c-0.152,0.106-0.306,0.215-0.434,0.329c-0.261,0.213-0.462,0.503-0.465,0.571c-0.002,0.037,0.015-0.083-0.046-0.166
		c-0.049-0.076-0.062-0.046,0.027-0.021c0.168,0.06,0.517,0.075,0.861,0.026c1.502-0.185,2.745-1.009,3.207-2.382
		c0.246-0.683,0.332-1.451,0.292-2.196c-0.061-0.666-0.357-1.407-0.745-2.087c-0.787-1.353-2.013-2.585-3.388-3.128
		c-0.685-0.267-1.378-0.313-1.99-0.087c-0.32,0.117-0.584,0.274-0.865,0.519c-0.234,0.211-0.288,0.355-0.274,0.451
		c-0.001,0.118,0.161,0.364,0.429,0.55c0.263,0.19,0.603,0.335,0.955,0.424c0.71,0.176,1.483,0.122,2.11-0.19
		c0.632-0.307,1.099-0.908,1.352-1.645c0.25-0.723,0.324-1.604,0.297-2.421c-0.033-1.66-0.785-3.272-2.062-4.428
		C116.805,108.487,115.183,107.704,113.507,107.146z"/>
</g>
<g>
	<path fill="#662D91" d="M109.106,106.2c1.149,1.342,2.14,2.889,2.583,4.674c0.476,1.765,0.214,3.792-0.793,5.401
		c-0.502,0.803-1.081,1.521-1.883,2.132c-0.783,0.594-1.863,0.978-2.937,0.817c-1.071-0.144-2.008-0.734-2.683-1.517
		c-0.338-0.396-0.624-0.845-0.809-1.376c-0.171-0.519-0.295-1.183,0.05-1.889c0.173-0.345,0.478-0.629,0.793-0.795
		c0.317-0.164,0.633-0.236,0.925-0.269c0.509-0.057,1.103-0.026,1.626,0.126c1.096,0.293,1.979,1.098,2.524,1.967
		c1.086,1.778,1.333,3.77,1.144,5.71c-0.114,0.976-0.359,1.963-0.94,2.906c-0.588,0.872-1.267,1.584-2.158,2.168
		c-0.877,0.573-1.979,0.918-3.069,0.878c-1.074-0.023-2.136-0.398-2.993-0.897c-0.454-0.277-0.916-0.599-1.314-1.188
		c-0.189-0.291-0.378-0.713-0.342-1.247c0.039-0.551,0.396-1.031,0.73-1.262c0.684-0.468,1.267-0.501,1.804-0.543
		c0.271-0.015,0.527-0.001,0.783,0.015l0.402,0.042l0.328,0.051c2.133,0.368,3.964,1.918,4.588,3.978
		c0.315,1.016,0.33,2.129,0.032,3.149c-0.294,1.025-0.886,1.921-1.625,2.633c-0.71,0.68-1.561,1.247-2.511,1.601
		c-0.947,0.351-2.033,0.481-3.07,0.24c-1.034-0.292-1.861-0.691-2.677-1.44c-0.196-0.195-0.388-0.425-0.538-0.727
		c-0.15-0.295-0.233-0.708-0.152-1.093c0.078-0.379,0.299-0.692,0.482-0.887c0.186-0.202,0.423-0.413,0.71-0.556
		c0.588-0.333,1.389-0.228,1.862,0.063c0.499,0.279,0.854,0.645,1.164,1.017c0.61,0.755,1.05,1.57,1.414,2.415
		c0.347,0.854,0.646,1.712,0.753,2.676c0.049,0.534-0.068,0.964-0.151,1.425c-0.102,0.452-0.246,0.905-0.486,1.323
		c-0.231,0.42-0.585,0.794-1.014,1.023c-0.43,0.23-0.905,0.314-1.36,0.331c-0.917,0.013-1.786-0.188-2.653-0.364
		c0.88,0.078,1.774,0.175,2.629,0.063c0.862-0.082,1.614-0.536,1.928-1.298c0.171-0.368,0.267-0.777,0.323-1.195
		c0.042-0.409,0.108-0.866,0.035-1.214c-0.154-0.791-0.505-1.604-0.892-2.354c-0.391-0.754-0.846-1.486-1.392-2.076
		c-0.27-0.292-0.572-0.545-0.86-0.678c-0.3-0.132-0.488-0.12-0.682-0.002c-0.195,0.104-0.471,0.472-0.451,0.551
		c-0.019,0.071,0.066,0.28,0.327,0.512c0.498,0.442,1.33,0.813,2.003,0.957c1.409,0.258,2.95-0.47,4.039-1.571
		c1.068-1.051,1.488-2.6,1.009-3.948c-0.429-1.353-1.703-2.395-3.07-2.621l-0.329-0.047l-0.258-0.023
		c-0.186-0.01-0.374-0.018-0.544-0.006c-0.336,0.007-0.673,0.112-0.717,0.165c-0.024,0.028,0.062-0.056,0.065-0.159
		c0.009-0.09-0.02-0.073,0.035,0.001c0.096,0.15,0.361,0.377,0.664,0.55c1.297,0.78,2.787,0.894,3.995,0.092
		c0.601-0.374,1.173-0.967,1.578-1.557c0.361-0.562,0.582-1.33,0.693-2.104c0.209-1.552-0.001-3.276-0.752-4.55
		c-0.377-0.632-0.896-1.095-1.517-1.292c-0.325-0.104-0.63-0.142-1.001-0.122c-0.314,0.022-0.447,0.104-0.495,0.188
		c-0.073,0.093-0.097,0.386,0,0.696c0.09,0.312,0.27,0.635,0.494,0.921c0.451,0.575,1.095,1.008,1.781,1.146
		c0.688,0.146,1.425-0.041,2.077-0.468c0.641-0.417,1.241-1.066,1.721-1.729c0.994-1.33,1.391-3.064,1.093-4.76
		C110.886,109.284,110.087,107.669,109.106,106.2z"/>
</g>
<path fill="none" stroke="#662D91" stroke-width="3" stroke-miterlimit="10" d="M113.244,107.672
	c-4.041,8.546-4.479,17.793-2.096,27.336c2.232,8.942,4.841,19.328,2.424,28.445c-2.572,9.703-5.646,19.294-6.098,29.439
	c-0.347,7.793-2.429,19.13,4.685,24.616c0.048-0.51-0.309-0.26-0.492-0.493"/>
<path fill="#B7A5CE" d="M131.575,49.276c1.871,5,3.161,10.021,3.923,14.941c1.502-4.468,2.344-9.41,2.344-14.615
	c0-19.904-12.211-36.039-27.275-36.039c-2.408,0-4.742,0.417-6.966,1.191C115.157,21.083,125.62,33.363,131.575,49.276z"/>
<path fill="#6B55A0" d="M105.621,82.965c-11.864,0-22.581-4.615-30.265-12.04c4.856,15.143,17.748,25.97,32.893,25.97
	c18.071,0,32.936-15.412,34.767-35.18C135.91,74.354,121.834,82.965,105.621,82.965z"/>
</svg>
